<svg width="250" height="250" viewBox="0 0 250 250" fill="none"
  xmlns="http://www.w3.org/2000/svg">
  <rect width="250" height="250" fill="#13A2AD"/>
  <path d="M169.297 90.657C165.26 118.652 163.242 138.183 163.242 149.251C163.242 172.298 169.166 183.821 181.015 183.821C189.348 183.821 198.072 178.938 207.187 169.173L210.898 171.712C204.648 186.165 199.082 195.735 194.199 200.423C189.316 205.111 183.945 207.454 178.086 207.454C169.102 207.454 162.689 202.05 158.848 191.243C155.006 180.436 153.086 168.066 153.086 154.134C153.086 140.462 154.908 122.168 158.555 99.251C144.622 113.574 127.174 135.84 106.211 166.048C93.19 184.798 84.401 196.387 79.844 200.814C75.287 205.242 69.883 207.455 63.633 207.455C54.128 207.455 49.375 202.767 49.375 193.392C49.375 188.445 51.263 183.855 55.039 179.622C58.815 175.391 67.734 168.457 81.797 158.821C85.834 132.389 87.852 113.118 87.852 101.008C87.852 78.091 81.862 66.633 69.883 66.633C61.68 66.633 53.021 71.516 43.906 81.281L40 78.742C50.287 54.914 61.224 43 72.813 43C81.667 43 88.047 48.371 91.954 59.113C95.861 69.855 97.813 82.258 97.813 96.32C97.813 110.122 96.055 128.351 92.54 151.008C108.035 135.383 125.027 113.834 143.517 86.36C155.756 68.261 164.578 56.51 169.982 51.106C175.385 45.703 181.212 43.001 187.462 43.001C191.759 43.001 195.177 44.368 197.716 47.103C200.255 49.838 201.525 53.158 201.525 57.064C201.525 62.272 199.572 67.025 195.666 71.322C191.76 75.619 182.969 82.063 169.297 90.657Z" fill="white"/>
</svg>
