<svg width="171" height="165" viewBox="0 0 171 165" fill="none" xmlns="http://www.w3.org/2000/svg">
<path d="M129.297 47.657C125.26 75.652 123.242 95.183 123.242 106.251C123.242 129.298 129.166 140.821 141.015 140.821C149.348 140.821 158.072 135.938 167.187 126.173L170.898 128.712C164.648 143.165 159.082 152.735 154.199 157.423C149.316 162.111 143.945 164.454 138.086 164.454C129.102 164.454 122.689 159.05 118.848 148.243C115.006 137.436 113.086 125.066 113.086 111.134C113.086 97.462 114.908 79.168 118.555 56.251C104.622 70.574 87.174 92.84 66.211 123.048C53.19 141.798 44.401 153.387 39.844 157.814C35.287 162.242 29.883 164.455 23.633 164.455C14.128 164.455 9.375 159.767 9.375 150.392C9.375 145.445 11.263 140.855 15.039 136.622C18.815 132.391 27.734 125.457 41.797 115.821C45.834 89.389 47.852 70.118 47.852 58.008C47.852 35.091 41.862 23.633 29.883 23.633C21.68 23.633 13.021 28.516 3.90601 38.281L0 35.742C10.287 11.914 21.224 0 32.813 0C41.667 0 48.047 5.37101 51.954 16.113C55.861 26.855 57.813 39.258 57.813 53.32C57.813 67.122 56.055 85.351 52.54 108.008C68.035 92.383 85.027 70.834 103.517 43.36C115.756 25.261 124.578 13.51 129.982 8.10602C135.385 2.70302 141.212 0.00100708 147.462 0.00100708C151.759 0.00100708 155.177 1.36803 157.716 4.10303C160.255 6.83803 161.525 10.158 161.525 14.064C161.525 19.272 159.572 24.025 155.666 28.322C151.76 32.619 142.969 39.063 129.297 47.657Z" fill="#13A2AD"/>
</svg>
