<svg width="662" height="193" viewBox="0 0 662 193" fill="none"
  xmlns="http://www.w3.org/2000/svg">
  <path d="M220.24 91.16C229.04 91.16 235.76 93.08 240.4 96.92C245.12 100.68 247.48 106.48 247.48 114.32V158H235L231.52 149.12H231.04C229.2 151.44 227.28 153.36 225.28 154.88C223.36 156.4 221.12 157.48 218.56 158.12C216.08 158.84 213 159.2 209.32 159.2C205.48 159.2 202 158.48 198.88 157.04C195.84 155.52 193.44 153.24 191.68 150.2C189.92 147.08 189.04 143.16 189.04 138.44C189.04 131.48 191.48 126.36 196.36 123.08C201.24 119.72 208.56 117.88 218.32 117.56L229.72 117.2V114.32C229.72 110.88 228.8 108.36 226.96 106.76C225.2 105.16 222.72 104.36 219.52 104.36C216.32 104.36 213.2 104.84 210.16 105.8C207.12 106.68 204.08 107.8 201.04 109.16L195.16 97.04C198.68 95.2 202.56 93.76 206.8 92.72C211.12 91.68 215.6 91.16 220.24 91.16ZM222.76 127.88C217 128.04 213 129.08 210.76 131C208.52 132.92 207.4 135.44 207.4 138.56C207.4 141.28 208.2 143.24 209.8 144.44C211.4 145.56 213.48 146.12 216.04 146.12C219.88 146.12 223.12 145 225.76 142.76C228.4 140.44 229.72 137.2 229.72 133.04V127.64L222.76 127.88ZM302.262 91.28C309.622 91.28 315.582 94.16 320.142 99.92C324.702 105.6 326.982 114 326.982 125.12C326.982 132.56 325.902 138.84 323.742 143.96C321.582 149 318.622 152.8 314.862 155.36C311.102 157.92 306.742 159.2 301.782 159.2C298.662 159.2 295.942 158.8 293.622 158C291.382 157.2 289.462 156.16 287.862 154.88C286.262 153.6 284.862 152.24 283.662 150.8H282.702C283.022 152.32 283.262 153.92 283.422 155.6C283.582 157.2 283.662 158.8 283.662 160.4V186.8H265.782V92.48H280.302L282.822 101H283.662C284.862 99.24 286.302 97.64 287.982 96.2C289.662 94.68 291.662 93.48 293.982 92.6C296.382 91.72 299.142 91.28 302.262 91.28ZM296.502 105.56C293.382 105.56 290.902 106.2 289.062 107.48C287.222 108.76 285.862 110.72 284.982 113.36C284.182 115.92 283.742 119.16 283.662 123.08V125C283.662 129.24 284.062 132.84 284.862 135.8C285.662 138.68 287.022 140.88 288.942 142.4C290.862 143.92 293.462 144.68 296.742 144.68C299.462 144.68 301.702 143.92 303.462 142.4C305.222 140.88 306.542 138.64 307.422 135.68C308.302 132.72 308.742 129.12 308.742 124.88C308.742 118.48 307.742 113.68 305.742 110.48C303.822 107.2 300.742 105.56 296.502 105.56ZM378.199 91.28C385.559 91.28 391.519 94.16 396.079 99.92C400.639 105.6 402.919 114 402.919 125.12C402.919 132.56 401.839 138.84 399.679 143.96C397.519 149 394.559 152.8 390.799 155.36C387.039 157.92 382.679 159.2 377.719 159.2C374.599 159.2 371.879 158.8 369.559 158C367.319 157.2 365.399 156.16 363.799 154.88C362.199 153.6 360.799 152.24 359.599 150.8H358.639C358.959 152.32 359.199 153.92 359.359 155.6C359.519 157.2 359.599 158.8 359.599 160.4V186.8H341.719V92.48H356.239L358.759 101H359.599C360.799 99.24 362.239 97.64 363.919 96.2C365.599 94.68 367.599 93.48 369.919 92.6C372.319 91.72 375.079 91.28 378.199 91.28ZM372.439 105.56C369.319 105.56 366.839 106.2 364.999 107.48C363.159 108.76 361.799 110.72 360.919 113.36C360.119 115.92 359.679 119.16 359.599 123.08V125C359.599 129.24 359.999 132.84 360.799 135.8C361.599 138.68 362.959 140.88 364.879 142.4C366.799 143.92 369.399 144.68 372.679 144.68C375.399 144.68 377.639 143.92 379.399 142.4C381.159 140.88 382.479 138.64 383.359 135.68C384.239 132.72 384.679 129.12 384.679 124.88C384.679 118.48 383.679 113.68 381.679 110.48C379.759 107.2 376.679 105.56 372.439 105.56ZM444.537 91.16C453.337 91.16 460.057 93.08 464.697 96.92C469.417 100.68 471.777 106.48 471.777 114.32V158H459.297L455.817 149.12H455.337C453.497 151.44 451.577 153.36 449.577 154.88C447.657 156.4 445.417 157.48 442.857 158.12C440.377 158.84 437.297 159.2 433.617 159.2C429.777 159.2 426.297 158.48 423.177 157.04C420.137 155.52 417.737 153.24 415.977 150.2C414.217 147.08 413.337 143.16 413.337 138.44C413.337 131.48 415.777 126.36 420.657 123.08C425.537 119.72 432.857 117.88 442.617 117.56L454.017 117.2V114.32C454.017 110.88 453.097 108.36 451.257 106.76C449.497 105.16 447.017 104.36 443.817 104.36C440.617 104.36 437.497 104.84 434.457 105.8C431.417 106.68 428.377 107.8 425.337 109.16L419.457 97.04C422.977 95.2 426.857 93.76 431.097 92.72C435.417 91.68 439.897 91.16 444.537 91.16ZM447.057 127.88C441.297 128.04 437.297 129.08 435.057 131C432.817 132.92 431.697 135.44 431.697 138.56C431.697 141.28 432.497 143.24 434.097 144.44C435.697 145.56 437.777 146.12 440.337 146.12C444.177 146.12 447.417 145 450.057 142.76C452.697 140.44 454.017 137.2 454.017 133.04V127.64L447.057 127.88ZM527.759 158L507.119 90.8H506.639C506.719 92.4 506.839 94.8 506.999 98C507.159 101.2 507.319 104.64 507.479 108.32C507.639 111.92 507.719 115.2 507.719 118.16V158H491.519V72.32H516.239L536.519 137.84H536.879L558.359 72.32H583.079V158H566.159V117.44C566.159 114.72 566.199 111.6 566.279 108.08C566.439 104.56 566.559 101.24 566.639 98.12C566.799 94.92 566.919 92.52 566.999 90.92H566.519L544.439 158H527.759ZM604.722 158V72.32H622.842V143H657.642V158H604.722Z" fill="#13A2AD"/>
  <path d="M129.297 47.657C125.26 75.652 123.242 95.183 123.242 106.251C123.242 129.298 129.166 140.821 141.015 140.821C149.348 140.821 158.072 135.938 167.187 126.173L170.898 128.712C164.648 143.165 159.082 152.735 154.199 157.423C149.316 162.111 143.945 164.454 138.086 164.454C129.102 164.454 122.689 159.05 118.848 148.243C115.006 137.436 113.086 125.066 113.086 111.134C113.086 97.462 114.908 79.168 118.555 56.251C104.622 70.574 87.174 92.84 66.211 123.048C53.19 141.798 44.401 153.387 39.844 157.814C35.287 162.242 29.883 164.455 23.633 164.455C14.128 164.455 9.375 159.767 9.375 150.392C9.375 145.445 11.263 140.855 15.039 136.622C18.815 132.391 27.734 125.457 41.797 115.821C45.834 89.389 47.852 70.118 47.852 58.008C47.852 35.091 41.862 23.633 29.883 23.633C21.68 23.633 13.021 28.516 3.90601 38.281L0 35.742C10.287 11.914 21.224 0 32.813 0C41.667 0 48.047 5.37101 51.954 16.113C55.861 26.855 57.813 39.258 57.813 53.32C57.813 67.122 56.055 85.351 52.54 108.008C68.035 92.383 85.027 70.834 103.517 43.36C115.756 25.261 124.578 13.51 129.982 8.10602C135.385 2.70302 141.212 0.00100708 147.462 0.00100708C151.759 0.00100708 155.177 1.36803 157.716 4.10303C160.255 6.83803 161.525 10.158 161.525 14.064C161.525 19.272 159.572 24.025 155.666 28.322C151.76 32.619 142.969 39.063 129.297 47.657Z" fill="#13A2AD"/>
</svg>
