<?xml version="1.0" encoding="UTF-8"?>
<svg id="Layer_1" data-name="Layer 1" xmlns="http://www.w3.org/2000/svg" viewBox="0 0 500 500">
  <defs>
    <style>
      .cls-1 {
        fill: #222;
        stroke-width: 0px;
      }
    </style>
  </defs>
  <path class="cls-1" d="m173.6,0v154.68h153.39V0h-153.39Zm108.8,108.51h-46.37c-10.11,0-17.84-7.79-17.84-17.99v-43.76h20.21v38.97c0,4.8,3.57,8.39,8.32,8.39h36.27c-.59,0-.59,1.8-.59,14.39Z"/>
  <path class="cls-1" d="m0,0v154.68h153.39V0H0Zm112.96,61.15h-44c-4.76,0-8.32,3.6-8.32,8.39v3h20.21v10.79h-20.21v2.4c0,4.8,3.57,8.39,8.32,8.39h44v14.39h-54.7c-10.11,0-17.84-7.79-17.84-17.99v-25.78c0-10.19,7.73-17.99,17.84-17.99h54.7v14.39Z"/>
  <path class="cls-1" d="m346.61,0v154.68h153.39V0h-153.39Zm76.69,100.12c-12.49,0-22.59-10.19-22.59-22.78s10.11-22.78,22.59-22.78,22.59,10.19,22.59,22.78c-.6,12.59-10.11,22.78-22.59,22.78Z"/>
  <path class="cls-1" d="m173.6,172.66v154.68h153.39v-154.68h-153.39Zm116.53,108.51h-21.4v-38.97c0-4.8-3.57-8.39-8.32-8.39h-27.94v47.36h-21.4v-61.75h60.64c10.11,0,17.84,7.79,17.84,17.99l.59,43.76Z"/>
  <path class="cls-1" d="m346.61,172.66v154.68h153.39v-154.68h-153.39Zm87.4,108.51h-21.4v-61.75h21.4v61.75Z"/>
  <path class="cls-1" d="m0,172.66v154.68h153.39v-154.68H0Zm76.69,100.12c-12.49,0-22.59-10.19-22.59-22.78s10.11-22.78,22.59-22.78,22.59,10.19,22.59,22.78c-.59,12.59-10.11,22.78-22.59,22.78Z"/>
  <path class="cls-1" d="m268.73,431.06v-24.58h-27.94c-4.76,0-8.32,3.6-8.32,8.39v24.58h27.94c4.16,0,8.32-3.6,8.32-8.39Z"/>
  <path class="cls-1" d="m173.6,345.32v154.68h153.39v-154.68h-153.39Zm115.93,90.53c0,10.19-7.73,17.99-17.84,17.99h-60.64v-43.76c0-10.19,7.73-17.99,17.84-17.99h60.64v43.76Z"/>
  <path class="cls-1" d="m346.61,345.32v154.68h153.39v-154.68h-153.39Zm76.69,100.12c-12.49,0-22.59-10.19-22.59-22.78s10.11-22.78,22.59-22.78,22.59,10.19,22.59,22.78-10.11,22.78-22.59,22.78Z"/>
  <path class="cls-1" d="m0,345.32v154.68h153.39v-154.68H0Zm51.72,28.18s7.13,3.6,16.65,2.4c2.97-.6,5.95-.6,8.92-1.8,14.27-3.6,25.56,1.8,26.75,3l-2.97,5.4s-5.95-3-13.67-3h-1.78c-2.97.6-6.54,1.2-10.11,1.8-14.86,4.2-26.75-2.4-26.75-3l2.97-4.8Zm64.21,80.34h-21.4v-38.97c0-4.8-3.57-8.39-8.32-8.39h-27.94v47.36h-21.4v-61.75h60.64c10.11,0,17.84,7.79,17.84,17.99l.6,43.76Z"/>
</svg>